<?xml version="1.0" encoding="utf-8" standalone="no"?>
<!DOCTYPE svg PUBLIC "-//W3C//DTD SVG 1.1//EN"
  "http://www.w3.org/Graphics/SVG/1.1/DTD/svg11.dtd">
<svg xmlns:xlink="http://www.w3.org/1999/xlink" width="877.676803pt" height="441.914038pt" viewBox="0 0 877.676803 441.914038" xmlns="http://www.w3.org/2000/svg" version="1.1">
 <metadata>
  <rdf:RDF xmlns:dc="http://purl.org/dc/elements/1.1/" xmlns:cc="http://creativecommons.org/ns#" xmlns:rdf="http://www.w3.org/1999/02/22-rdf-syntax-ns#">
   <cc:Work>
    <dc:type rdf:resource="http://purl.org/dc/dcmitype/StillImage"/>
    <dc:date>2023-01-09T12:32:33.993606</dc:date>
    <dc:format>image/svg+xml</dc:format>
    <dc:creator>
     <cc:Agent>
      <dc:title>Matplotlib v3.6.0, https://matplotlib.org/</dc:title>
     </cc:Agent>
    </dc:creator>
   </cc:Work>
  </rdf:RDF>
 </metadata>
 <defs>
  <style type="text/css">*{stroke-linejoin: round; stroke-linecap: butt}</style>
 </defs>
 <g id="figure_1">
  <g id="patch_1">
   <path d="M 0 441.914038 
L 877.676803 441.914038 
L 877.676803 0 
L 0 0 
z
" style="fill: #ffffff"/>
  </g>
  <g id="axes_1">
   <g id="patch_2">
    <path d="M 75.4225 339.84 
L 856.6225 339.84 
L 856.6225 7.2 
L 75.4225 7.2 
z
" style="fill: #ffffff"/>
   </g>
   <g id="patch_3">
    <path d="M 63.300431 339.84 
L 87.544569 339.84 
L 87.544569 339.84 
L 63.300431 339.84 
z
" clip-path="url(#pd55624e7b4)" style="fill: #0000ff"/>
   </g>
   <g id="patch_4">
    <path d="M 90.238362 339.84 
L 114.4825 339.84 
L 114.4825 339.84 
L 90.238362 339.84 
z
" clip-path="url(#pd55624e7b4)" style="fill: #0000ff"/>
   </g>
   <g id="patch_5">
    <path d="M 117.176293 339.84 
L 141.420431 339.84 
L 141.420431 339.84 
L 117.176293 339.84 
z
" clip-path="url(#pd55624e7b4)" style="fill: #0000ff"/>
   </g>
   <g id="patch_6">
    <path d="M 144.114224 339.84 
L 168.358362 339.84 
L 168.358362 339.84 
L 144.114224 339.84 
z
" clip-path="url(#pd55624e7b4)" style="fill: #0000ff"/>
   </g>
   <g id="patch_7">
    <path d="M 171.052155 339.84 
L 195.296293 339.84 
L 195.296293 339.84 
L 171.052155 339.84 
z
" clip-path="url(#pd55624e7b4)" style="fill: #0000ff"/>
   </g>
   <g id="patch_8">
    <path d="M 197.990086 339.84 
L 222.234224 339.84 
L 222.234224 339.84 
L 197.990086 339.84 
z
" clip-path="url(#pd55624e7b4)" style="fill: #0000ff"/>
   </g>
   <g id="patch_9">
    <path d="M 224.928017 339.84 
L 249.172155 339.84 
L 249.172155 339.84 
L 224.928017 339.84 
z
" clip-path="url(#pd55624e7b4)" style="fill: #0000ff"/>
   </g>
   <g id="patch_10">
    <path d="M 251.865948 339.84 
L 276.110086 339.84 
L 276.110086 339.84 
L 251.865948 339.84 
z
" clip-path="url(#pd55624e7b4)" style="fill: #0000ff"/>
   </g>
   <g id="patch_11">
    <path d="M 278.803879 339.84 
L 303.048017 339.84 
L 303.048017 337.283796 
L 278.803879 337.283796 
z
" clip-path="url(#pd55624e7b4)" style="fill: #0000ff"/>
   </g>
   <g id="patch_12">
    <path d="M 305.74181 339.84 
L 329.985948 339.84 
L 329.985948 286.874756 
L 305.74181 286.874756 
z
" clip-path="url(#pd55624e7b4)" style="fill: #0000ff"/>
   </g>
   <g id="patch_13">
    <path d="M 332.679741 339.84 
L 356.923879 339.84 
L 356.923879 310.698944 
L 332.679741 310.698944 
z
" clip-path="url(#pd55624e7b4)" style="fill: #0000ff"/>
   </g>
   <g id="patch_14">
    <path d="M 359.617672 339.84 
L 383.86181 339.84 
L 383.86181 333.705351 
L 359.617672 333.705351 
z
" clip-path="url(#pd55624e7b4)" style="fill: #0000ff"/>
   </g>
   <g id="patch_15">
    <path d="M 386.555603 339.84 
L 410.799741 339.84 
L 410.799741 336.519997 
L 386.555603 336.519997 
z
" clip-path="url(#pd55624e7b4)" style="fill: #0000ff"/>
   </g>
   <g id="patch_16">
    <path d="M 413.493534 339.84 
L 437.737672 339.84 
L 437.737672 339.84 
L 413.493534 339.84 
z
" clip-path="url(#pd55624e7b4)" style="fill: #0000ff"/>
   </g>
   <g id="patch_17">
    <path d="M 440.431466 339.84 
L 464.675603 339.84 
L 464.675603 255.753726 
L 440.431466 255.753726 
z
" clip-path="url(#pd55624e7b4)" style="fill: #0000ff"/>
   </g>
   <g id="patch_18">
    <path d="M 467.369397 339.84 
L 491.613534 339.84 
L 491.613534 330.641225 
L 467.369397 330.641225 
z
" clip-path="url(#pd55624e7b4)" style="fill: #0000ff"/>
   </g>
   <g id="patch_19">
    <path d="M 494.307328 339.84 
L 518.551466 339.84 
L 518.551466 339.84 
L 494.307328 339.84 
z
" clip-path="url(#pd55624e7b4)" style="fill: #0000ff"/>
   </g>
   <g id="patch_20">
    <path d="M 521.245259 339.84 
L 545.489397 339.84 
L 545.489397 337.746112 
L 521.245259 337.746112 
z
" clip-path="url(#pd55624e7b4)" style="fill: #0000ff"/>
   </g>
   <g id="patch_21">
    <path d="M 548.18319 339.84 
L 572.427328 339.84 
L 572.427328 334.223502 
L 548.18319 334.223502 
z
" clip-path="url(#pd55624e7b4)" style="fill: #0000ff"/>
   </g>
   <g id="patch_22">
    <path d="M 575.121121 339.84 
L 599.365259 339.84 
L 599.365259 319.414625 
L 575.121121 319.414625 
z
" clip-path="url(#pd55624e7b4)" style="fill: #0000ff"/>
   </g>
   <g id="patch_23">
    <path d="M 602.059052 339.84 
L 626.30319 339.84 
L 626.30319 312.838588 
L 602.059052 312.838588 
z
" clip-path="url(#pd55624e7b4)" style="fill: #0000ff"/>
   </g>
   <g id="patch_24">
    <path d="M 628.996983 339.84 
L 653.241121 339.84 
L 653.241121 339.84 
L 628.996983 339.84 
z
" clip-path="url(#pd55624e7b4)" style="fill: #0000ff"/>
   </g>
   <g id="patch_25">
    <path d="M 655.934914 339.84 
L 680.179052 339.84 
L 680.179052 339.84 
L 655.934914 339.84 
z
" clip-path="url(#pd55624e7b4)" style="fill: #0000ff"/>
   </g>
   <g id="patch_26">
    <path d="M 682.872845 339.84 
L 707.116983 339.84 
L 707.116983 339.84 
L 682.872845 339.84 
z
" clip-path="url(#pd55624e7b4)" style="fill: #0000ff"/>
   </g>
   <g id="patch_27">
    <path d="M 709.810776 339.84 
L 734.054914 339.84 
L 734.054914 331.14237 
L 709.810776 331.14237 
z
" clip-path="url(#pd55624e7b4)" style="fill: #0000ff"/>
   </g>
   <g id="patch_28">
    <path d="M 736.748707 339.84 
L 760.992845 339.84 
L 760.992845 339.84 
L 736.748707 339.84 
z
" clip-path="url(#pd55624e7b4)" style="fill: #0000ff"/>
   </g>
   <g id="patch_29">
    <path d="M 763.686638 339.84 
L 787.930776 339.84 
L 787.930776 339.84 
L 763.686638 339.84 
z
" clip-path="url(#pd55624e7b4)" style="fill: #0000ff"/>
   </g>
   <g id="patch_30">
    <path d="M 790.624569 339.84 
L 814.868707 339.84 
L 814.868707 339.84 
L 790.624569 339.84 
z
" clip-path="url(#pd55624e7b4)" style="fill: #0000ff"/>
   </g>
   <g id="patch_31">
    <path d="M 817.5625 339.84 
L 841.806638 339.84 
L 841.806638 337.543505 
L 817.5625 337.543505 
z
" clip-path="url(#pd55624e7b4)" style="fill: #0000ff"/>
   </g>
   <g id="patch_32">
    <path d="M 63.300431 339.84 
L 87.544569 339.84 
L 87.544569 339.84 
L 63.300431 339.84 
z
" clip-path="url(#pd55624e7b4)" style="fill: #ff0000"/>
   </g>
   <g id="patch_33">
    <path d="M 90.238362 339.84 
L 114.4825 339.84 
L 114.4825 339.84 
L 90.238362 339.84 
z
" clip-path="url(#pd55624e7b4)" style="fill: #ff0000"/>
   </g>
   <g id="patch_34">
    <path d="M 117.176293 339.84 
L 141.420431 339.84 
L 141.420431 339.84 
L 117.176293 339.84 
z
" clip-path="url(#pd55624e7b4)" style="fill: #ff0000"/>
   </g>
   <g id="patch_35">
    <path d="M 144.114224 339.84 
L 168.358362 339.84 
L 168.358362 339.84 
L 144.114224 339.84 
z
" clip-path="url(#pd55624e7b4)" style="fill: #ff0000"/>
   </g>
   <g id="patch_36">
    <path d="M 171.052155 339.84 
L 195.296293 339.84 
L 195.296293 331.402458 
L 171.052155 331.402458 
z
" clip-path="url(#pd55624e7b4)" style="fill: #ff0000"/>
   </g>
   <g id="patch_37">
    <path d="M 197.990086 339.84 
L 222.234224 339.84 
L 222.234224 316.580788 
L 197.990086 316.580788 
z
" clip-path="url(#pd55624e7b4)" style="fill: #ff0000"/>
   </g>
   <g id="patch_38">
    <path d="M 224.928017 339.84 
L 249.172155 339.84 
L 249.172155 317.860172 
L 224.928017 317.860172 
z
" clip-path="url(#pd55624e7b4)" style="fill: #ff0000"/>
   </g>
   <g id="patch_39">
    <path d="M 251.865948 339.84 
L 276.110086 339.84 
L 276.110086 292.809822 
L 251.865948 292.809822 
z
" clip-path="url(#pd55624e7b4)" style="fill: #ff0000"/>
   </g>
   <g id="patch_40">
    <path d="M 278.803879 337.283796 
L 303.048017 337.283796 
L 303.048017 298.435282 
L 278.803879 298.435282 
z
" clip-path="url(#pd55624e7b4)" style="fill: #ff0000"/>
   </g>
   <g id="patch_41">
    <path d="M 305.74181 286.874756 
L 329.985948 286.874756 
L 329.985948 276.396596 
L 305.74181 276.396596 
z
" clip-path="url(#pd55624e7b4)" style="fill: #ff0000"/>
   </g>
   <g id="patch_42">
    <path d="M 332.679741 310.698944 
L 356.923879 310.698944 
L 356.923879 307.916282 
L 332.679741 307.916282 
z
" clip-path="url(#pd55624e7b4)" style="fill: #ff0000"/>
   </g>
   <g id="patch_43">
    <path d="M 359.617672 333.705351 
L 383.86181 333.705351 
L 383.86181 333.705351 
L 359.617672 333.705351 
z
" clip-path="url(#pd55624e7b4)" style="fill: #ff0000"/>
   </g>
   <g id="patch_44">
    <path d="M 386.555603 336.519997 
L 410.799741 336.519997 
L 410.799741 336.519997 
L 386.555603 336.519997 
z
" clip-path="url(#pd55624e7b4)" style="fill: #ff0000"/>
   </g>
   <g id="patch_45">
    <path d="M 413.493534 339.84 
L 437.737672 339.84 
L 437.737672 339.84 
L 413.493534 339.84 
z
" clip-path="url(#pd55624e7b4)" style="fill: #ff0000"/>
   </g>
   <g id="patch_46">
    <path d="M 440.431466 255.753726 
L 464.675603 255.753726 
L 464.675603 255.753726 
L 440.431466 255.753726 
z
" clip-path="url(#pd55624e7b4)" style="fill: #ff0000"/>
   </g>
   <g id="patch_47">
    <path d="M 467.369397 330.641225 
L 491.613534 330.641225 
L 491.613534 330.641225 
L 467.369397 330.641225 
z
" clip-path="url(#pd55624e7b4)" style="fill: #ff0000"/>
   </g>
   <g id="patch_48">
    <path d="M 494.307328 339.84 
L 518.551466 339.84 
L 518.551466 339.84 
L 494.307328 339.84 
z
" clip-path="url(#pd55624e7b4)" style="fill: #ff0000"/>
   </g>
   <g id="patch_49">
    <path d="M 521.245259 337.746112 
L 545.489397 337.746112 
L 545.489397 337.746112 
L 521.245259 337.746112 
z
" clip-path="url(#pd55624e7b4)" style="fill: #ff0000"/>
   </g>
   <g id="patch_50">
    <path d="M 548.18319 334.223502 
L 572.427328 334.223502 
L 572.427328 334.223502 
L 548.18319 334.223502 
z
" clip-path="url(#pd55624e7b4)" style="fill: #ff0000"/>
   </g>
   <g id="patch_51">
    <path d="M 575.121121 319.414625 
L 599.365259 319.414625 
L 599.365259 319.414625 
L 575.121121 319.414625 
z
" clip-path="url(#pd55624e7b4)" style="fill: #ff0000"/>
   </g>
   <g id="patch_52">
    <path d="M 602.059052 312.838588 
L 626.30319 312.838588 
L 626.30319 312.838588 
L 602.059052 312.838588 
z
" clip-path="url(#pd55624e7b4)" style="fill: #ff0000"/>
   </g>
   <g id="patch_53">
    <path d="M 628.996983 339.84 
L 653.241121 339.84 
L 653.241121 339.84 
L 628.996983 339.84 
z
" clip-path="url(#pd55624e7b4)" style="fill: #ff0000"/>
   </g>
   <g id="patch_54">
    <path d="M 655.934914 339.84 
L 680.179052 339.84 
L 680.179052 339.84 
L 655.934914 339.84 
z
" clip-path="url(#pd55624e7b4)" style="fill: #ff0000"/>
   </g>
   <g id="patch_55">
    <path d="M 682.872845 339.84 
L 707.116983 339.84 
L 707.116983 339.84 
L 682.872845 339.84 
z
" clip-path="url(#pd55624e7b4)" style="fill: #ff0000"/>
   </g>
   <g id="patch_56">
    <path d="M 709.810776 331.14237 
L 734.054914 331.14237 
L 734.054914 331.14237 
L 709.810776 331.14237 
z
" clip-path="url(#pd55624e7b4)" style="fill: #ff0000"/>
   </g>
   <g id="patch_57">
    <path d="M 736.748707 339.84 
L 760.992845 339.84 
L 760.992845 339.84 
L 736.748707 339.84 
z
" clip-path="url(#pd55624e7b4)" style="fill: #ff0000"/>
   </g>
   <g id="patch_58">
    <path d="M 763.686638 339.84 
L 787.930776 339.84 
L 787.930776 334.984735 
L 763.686638 334.984735 
z
" clip-path="url(#pd55624e7b4)" style="fill: #ff0000"/>
   </g>
   <g id="patch_59">
    <path d="M 790.624569 339.84 
L 814.868707 339.84 
L 814.868707 339.84 
L 790.624569 339.84 
z
" clip-path="url(#pd55624e7b4)" style="fill: #ff0000"/>
   </g>
   <g id="patch_60">
    <path d="M 817.5625 337.543505 
L 841.806638 337.543505 
L 841.806638 337.543505 
L 817.5625 337.543505 
z
" clip-path="url(#pd55624e7b4)" style="fill: #ff0000"/>
   </g>
   <g id="patch_61">
    <path d="M 63.300431 339.84 
L 87.544569 339.84 
L 87.544569 339.84 
L 63.300431 339.84 
z
" clip-path="url(#pd55624e7b4)" style="fill: #008000"/>
   </g>
   <g id="patch_62">
    <path d="M 90.238362 339.84 
L 114.4825 339.84 
L 114.4825 339.84 
L 90.238362 339.84 
z
" clip-path="url(#pd55624e7b4)" style="fill: #008000"/>
   </g>
   <g id="patch_63">
    <path d="M 117.176293 339.84 
L 141.420431 339.84 
L 141.420431 339.84 
L 117.176293 339.84 
z
" clip-path="url(#pd55624e7b4)" style="fill: #008000"/>
   </g>
   <g id="patch_64">
    <path d="M 144.114224 339.84 
L 168.358362 339.84 
L 168.358362 339.84 
L 144.114224 339.84 
z
" clip-path="url(#pd55624e7b4)" style="fill: #008000"/>
   </g>
   <g id="patch_65">
    <path d="M 171.052155 331.402458 
L 195.296293 331.402458 
L 195.296293 331.402458 
L 171.052155 331.402458 
z
" clip-path="url(#pd55624e7b4)" style="fill: #008000"/>
   </g>
   <g id="patch_66">
    <path d="M 197.990086 316.580788 
L 222.234224 316.580788 
L 222.234224 125.151321 
L 197.990086 125.151321 
z
" clip-path="url(#pd55624e7b4)" style="fill: #008000"/>
   </g>
   <g id="patch_67">
    <path d="M 224.928017 317.860172 
L 249.172155 317.860172 
L 249.172155 295.822772 
L 224.928017 295.822772 
z
" clip-path="url(#pd55624e7b4)" style="fill: #008000"/>
   </g>
   <g id="patch_68">
    <path d="M 251.865948 292.809822 
L 276.110086 292.809822 
L 276.110086 287.186926 
L 251.865948 287.186926 
z
" clip-path="url(#pd55624e7b4)" style="fill: #008000"/>
   </g>
   <g id="patch_69">
    <path d="M 278.803879 298.435282 
L 303.048017 298.435282 
L 303.048017 293.298553 
L 278.803879 293.298553 
z
" clip-path="url(#pd55624e7b4)" style="fill: #008000"/>
   </g>
   <g id="patch_70">
    <path d="M 305.74181 276.396596 
L 329.985948 276.396596 
L 329.985948 276.396596 
L 305.74181 276.396596 
z
" clip-path="url(#pd55624e7b4)" style="fill: #008000"/>
   </g>
   <g id="patch_71">
    <path d="M 332.679741 307.916282 
L 356.923879 307.916282 
L 356.923879 307.916282 
L 332.679741 307.916282 
z
" clip-path="url(#pd55624e7b4)" style="fill: #008000"/>
   </g>
   <g id="patch_72">
    <path d="M 359.617672 333.705351 
L 383.86181 333.705351 
L 383.86181 332.176486 
L 359.617672 332.176486 
z
" clip-path="url(#pd55624e7b4)" style="fill: #008000"/>
   </g>
   <g id="patch_73">
    <path d="M 386.555603 336.519997 
L 410.799741 336.519997 
L 410.799741 336.519997 
L 386.555603 336.519997 
z
" clip-path="url(#pd55624e7b4)" style="fill: #008000"/>
   </g>
   <g id="patch_74">
    <path d="M 413.493534 339.84 
L 437.737672 339.84 
L 437.737672 339.84 
L 413.493534 339.84 
z
" clip-path="url(#pd55624e7b4)" style="fill: #008000"/>
   </g>
   <g id="patch_75">
    <path d="M 440.431466 255.753726 
L 464.675603 255.753726 
L 464.675603 255.753726 
L 440.431466 255.753726 
z
" clip-path="url(#pd55624e7b4)" style="fill: #008000"/>
   </g>
   <g id="patch_76">
    <path d="M 467.369397 330.641225 
L 491.613534 330.641225 
L 491.613534 330.641225 
L 467.369397 330.641225 
z
" clip-path="url(#pd55624e7b4)" style="fill: #008000"/>
   </g>
   <g id="patch_77">
    <path d="M 494.307328 339.84 
L 518.551466 339.84 
L 518.551466 339.84 
L 494.307328 339.84 
z
" clip-path="url(#pd55624e7b4)" style="fill: #008000"/>
   </g>
   <g id="patch_78">
    <path d="M 521.245259 337.746112 
L 545.489397 337.746112 
L 545.489397 337.746112 
L 521.245259 337.746112 
z
" clip-path="url(#pd55624e7b4)" style="fill: #008000"/>
   </g>
   <g id="patch_79">
    <path d="M 548.18319 334.223502 
L 572.427328 334.223502 
L 572.427328 334.223502 
L 548.18319 334.223502 
z
" clip-path="url(#pd55624e7b4)" style="fill: #008000"/>
   </g>
   <g id="patch_80">
    <path d="M 575.121121 319.414625 
L 599.365259 319.414625 
L 599.365259 319.414625 
L 575.121121 319.414625 
z
" clip-path="url(#pd55624e7b4)" style="fill: #008000"/>
   </g>
   <g id="patch_81">
    <path d="M 602.059052 312.838588 
L 626.30319 312.838588 
L 626.30319 312.838588 
L 602.059052 312.838588 
z
" clip-path="url(#pd55624e7b4)" style="fill: #008000"/>
   </g>
   <g id="patch_82">
    <path d="M 628.996983 339.84 
L 653.241121 339.84 
L 653.241121 339.84 
L 628.996983 339.84 
z
" clip-path="url(#pd55624e7b4)" style="fill: #008000"/>
   </g>
   <g id="patch_83">
    <path d="M 655.934914 339.84 
L 680.179052 339.84 
L 680.179052 339.84 
L 655.934914 339.84 
z
" clip-path="url(#pd55624e7b4)" style="fill: #008000"/>
   </g>
   <g id="patch_84">
    <path d="M 682.872845 339.84 
L 707.116983 339.84 
L 707.116983 339.84 
L 682.872845 339.84 
z
" clip-path="url(#pd55624e7b4)" style="fill: #008000"/>
   </g>
   <g id="patch_85">
    <path d="M 709.810776 331.14237 
L 734.054914 331.14237 
L 734.054914 331.14237 
L 709.810776 331.14237 
z
" clip-path="url(#pd55624e7b4)" style="fill: #008000"/>
   </g>
   <g id="patch_86">
    <path d="M 736.748707 339.84 
L 760.992845 339.84 
L 760.992845 339.84 
L 736.748707 339.84 
z
" clip-path="url(#pd55624e7b4)" style="fill: #008000"/>
   </g>
   <g id="patch_87">
    <path d="M 763.686638 334.984735 
L 787.930776 334.984735 
L 787.930776 334.984735 
L 763.686638 334.984735 
z
" clip-path="url(#pd55624e7b4)" style="fill: #008000"/>
   </g>
   <g id="patch_88">
    <path d="M 790.624569 339.84 
L 814.868707 339.84 
L 814.868707 339.84 
L 790.624569 339.84 
z
" clip-path="url(#pd55624e7b4)" style="fill: #008000"/>
   </g>
   <g id="patch_89">
    <path d="M 817.5625 337.543505 
L 841.806638 337.543505 
L 841.806638 337.543505 
L 817.5625 337.543505 
z
" clip-path="url(#pd55624e7b4)" style="fill: #008000"/>
   </g>
   <g id="patch_90">
    <path d="M 63.300431 339.84 
L 87.544569 339.84 
L 87.544569 339.84 
L 63.300431 339.84 
z
" clip-path="url(#pd55624e7b4)" style="fill: #bf00bf"/>
   </g>
   <g id="patch_91">
    <path d="M 90.238362 339.84 
L 114.4825 339.84 
L 114.4825 339.84 
L 90.238362 339.84 
z
" clip-path="url(#pd55624e7b4)" style="fill: #bf00bf"/>
   </g>
   <g id="patch_92">
    <path d="M 117.176293 339.84 
L 141.420431 339.84 
L 141.420431 339.84 
L 117.176293 339.84 
z
" clip-path="url(#pd55624e7b4)" style="fill: #bf00bf"/>
   </g>
   <g id="patch_93">
    <path d="M 144.114224 339.84 
L 168.358362 339.84 
L 168.358362 339.84 
L 144.114224 339.84 
z
" clip-path="url(#pd55624e7b4)" style="fill: #bf00bf"/>
   </g>
   <g id="patch_94">
    <path d="M 171.052155 331.402458 
L 195.296293 331.402458 
L 195.296293 331.402458 
L 171.052155 331.402458 
z
" clip-path="url(#pd55624e7b4)" style="fill: #bf00bf"/>
   </g>
   <g id="patch_95">
    <path d="M 197.990086 125.151321 
L 222.234224 125.151321 
L 222.234224 71.917971 
L 197.990086 71.917971 
z
" clip-path="url(#pd55624e7b4)" style="fill: #bf00bf"/>
   </g>
   <g id="patch_96">
    <path d="M 224.928017 295.822772 
L 249.172155 295.822772 
L 249.172155 290.967508 
L 224.928017 290.967508 
z
" clip-path="url(#pd55624e7b4)" style="fill: #bf00bf"/>
   </g>
   <g id="patch_97">
    <path d="M 251.865948 287.186926 
L 276.110086 287.186926 
L 276.110086 287.186926 
L 251.865948 287.186926 
z
" clip-path="url(#pd55624e7b4)" style="fill: #bf00bf"/>
   </g>
   <g id="patch_98">
    <path d="M 278.803879 293.298553 
L 303.048017 293.298553 
L 303.048017 293.298553 
L 278.803879 293.298553 
z
" clip-path="url(#pd55624e7b4)" style="fill: #bf00bf"/>
   </g>
   <g id="patch_99">
    <path d="M 305.74181 276.396596 
L 329.985948 276.396596 
L 329.985948 276.396596 
L 305.74181 276.396596 
z
" clip-path="url(#pd55624e7b4)" style="fill: #bf00bf"/>
   </g>
   <g id="patch_100">
    <path d="M 332.679741 307.916282 
L 356.923879 307.916282 
L 356.923879 307.916282 
L 332.679741 307.916282 
z
" clip-path="url(#pd55624e7b4)" style="fill: #bf00bf"/>
   </g>
   <g id="patch_101">
    <path d="M 359.617672 332.176486 
L 383.86181 332.176486 
L 383.86181 332.176486 
L 359.617672 332.176486 
z
" clip-path="url(#pd55624e7b4)" style="fill: #bf00bf"/>
   </g>
   <g id="patch_102">
    <path d="M 386.555603 336.519997 
L 410.799741 336.519997 
L 410.799741 336.519997 
L 386.555603 336.519997 
z
" clip-path="url(#pd55624e7b4)" style="fill: #bf00bf"/>
   </g>
   <g id="patch_103">
    <path d="M 413.493534 339.84 
L 437.737672 339.84 
L 437.737672 339.84 
L 413.493534 339.84 
z
" clip-path="url(#pd55624e7b4)" style="fill: #bf00bf"/>
   </g>
   <g id="patch_104">
    <path d="M 440.431466 255.753726 
L 464.675603 255.753726 
L 464.675603 255.753726 
L 440.431466 255.753726 
z
" clip-path="url(#pd55624e7b4)" style="fill: #bf00bf"/>
   </g>
   <g id="patch_105">
    <path d="M 467.369397 330.641225 
L 491.613534 330.641225 
L 491.613534 330.641225 
L 467.369397 330.641225 
z
" clip-path="url(#pd55624e7b4)" style="fill: #bf00bf"/>
   </g>
   <g id="patch_106">
    <path d="M 494.307328 339.84 
L 518.551466 339.84 
L 518.551466 339.84 
L 494.307328 339.84 
z
" clip-path="url(#pd55624e7b4)" style="fill: #bf00bf"/>
   </g>
   <g id="patch_107">
    <path d="M 521.245259 337.746112 
L 545.489397 337.746112 
L 545.489397 337.746112 
L 521.245259 337.746112 
z
" clip-path="url(#pd55624e7b4)" style="fill: #bf00bf"/>
   </g>
   <g id="patch_108">
    <path d="M 548.18319 334.223502 
L 572.427328 334.223502 
L 572.427328 334.223502 
L 548.18319 334.223502 
z
" clip-path="url(#pd55624e7b4)" style="fill: #bf00bf"/>
   </g>
   <g id="patch_109">
    <path d="M 575.121121 319.414625 
L 599.365259 319.414625 
L 599.365259 319.414625 
L 575.121121 319.414625 
z
" clip-path="url(#pd55624e7b4)" style="fill: #bf00bf"/>
   </g>
   <g id="patch_110">
    <path d="M 602.059052 312.838588 
L 626.30319 312.838588 
L 626.30319 312.838588 
L 602.059052 312.838588 
z
" clip-path="url(#pd55624e7b4)" style="fill: #bf00bf"/>
   </g>
   <g id="patch_111">
    <path d="M 628.996983 339.84 
L 653.241121 339.84 
L 653.241121 339.84 
L 628.996983 339.84 
z
" clip-path="url(#pd55624e7b4)" style="fill: #bf00bf"/>
   </g>
   <g id="patch_112">
    <path d="M 655.934914 339.84 
L 680.179052 339.84 
L 680.179052 339.84 
L 655.934914 339.84 
z
" clip-path="url(#pd55624e7b4)" style="fill: #bf00bf"/>
   </g>
   <g id="patch_113">
    <path d="M 682.872845 339.84 
L 707.116983 339.84 
L 707.116983 339.84 
L 682.872845 339.84 
z
" clip-path="url(#pd55624e7b4)" style="fill: #bf00bf"/>
   </g>
   <g id="patch_114">
    <path d="M 709.810776 331.14237 
L 734.054914 331.14237 
L 734.054914 331.14237 
L 709.810776 331.14237 
z
" clip-path="url(#pd55624e7b4)" style="fill: #bf00bf"/>
   </g>
   <g id="patch_115">
    <path d="M 736.748707 339.84 
L 760.992845 339.84 
L 760.992845 339.84 
L 736.748707 339.84 
z
" clip-path="url(#pd55624e7b4)" style="fill: #bf00bf"/>
   </g>
   <g id="patch_116">
    <path d="M 763.686638 334.984735 
L 787.930776 334.984735 
L 787.930776 334.984735 
L 763.686638 334.984735 
z
" clip-path="url(#pd55624e7b4)" style="fill: #bf00bf"/>
   </g>
   <g id="patch_117">
    <path d="M 790.624569 339.84 
L 814.868707 339.84 
L 814.868707 339.84 
L 790.624569 339.84 
z
" clip-path="url(#pd55624e7b4)" style="fill: #bf00bf"/>
   </g>
   <g id="patch_118">
    <path d="M 817.5625 337.543505 
L 841.806638 337.543505 
L 841.806638 337.543505 
L 817.5625 337.543505 
z
" clip-path="url(#pd55624e7b4)" style="fill: #bf00bf"/>
   </g>
   <g id="matplotlib.axis_1">
    <g id="xtick_1">
     <g id="line2d_1">
      <defs>
       <path id="mb8538dd4f4" d="M 0 0 
L 0 3.5 
" style="stroke: #000000; stroke-width: 0.8"/>
      </defs>
      <g>
       <use xlink:href="#mb8538dd4f4" x="88.891466" y="339.84" style="stroke: #000000; stroke-width: 0.8"/>
      </g>
     </g>
     <g id="text_1">
      <!-- 100 -->
      <g transform="translate(78.337455 388.353576) rotate(-45) scale(0.22 -0.22)">
       <defs>
        <path id="DejaVuSans-31" d="M 794 531 
L 1825 531 
L 1825 4091 
L 703 3866 
L 703 4441 
L 1819 4666 
L 2450 4666 
L 2450 531 
L 3481 531 
L 3481 0 
L 794 0 
L 794 531 
z
" transform="scale(0.015625)"/>
        <path id="DejaVuSans-30" d="M 2034 4250 
Q 1547 4250 1301 3770 
Q 1056 3291 1056 2328 
Q 1056 1369 1301 889 
Q 1547 409 2034 409 
Q 2525 409 2770 889 
Q 3016 1369 3016 2328 
Q 3016 3291 2770 3770 
Q 2525 4250 2034 4250 
z
M 2034 4750 
Q 2819 4750 3233 4129 
Q 3647 3509 3647 2328 
Q 3647 1150 3233 529 
Q 2819 -91 2034 -91 
Q 1250 -91 836 529 
Q 422 1150 422 2328 
Q 422 3509 836 4129 
Q 1250 4750 2034 4750 
z
" transform="scale(0.015625)"/>
       </defs>
       <use xlink:href="#DejaVuSans-31"/>
       <use xlink:href="#DejaVuSans-30" x="63.623047"/>
       <use xlink:href="#DejaVuSans-30" x="127.246094"/>
      </g>
     </g>
    </g>
    <g id="xtick_2">
     <g id="line2d_2">
      <g>
       <use xlink:href="#mb8538dd4f4" x="115.829397" y="339.84" style="stroke: #000000; stroke-width: 0.8"/>
      </g>
     </g>
     <g id="text_2">
      <!-- 200 -->
      <g transform="translate(105.275386 388.353576) rotate(-45) scale(0.22 -0.22)">
       <defs>
        <path id="DejaVuSans-32" d="M 1228 531 
L 3431 531 
L 3431 0 
L 469 0 
L 469 531 
Q 828 903 1448 1529 
Q 2069 2156 2228 2338 
Q 2531 2678 2651 2914 
Q 2772 3150 2772 3378 
Q 2772 3750 2511 3984 
Q 2250 4219 1831 4219 
Q 1534 4219 1204 4116 
Q 875 4013 500 3803 
L 500 4441 
Q 881 4594 1212 4672 
Q 1544 4750 1819 4750 
Q 2544 4750 2975 4387 
Q 3406 4025 3406 3419 
Q 3406 3131 3298 2873 
Q 3191 2616 2906 2266 
Q 2828 2175 2409 1742 
Q 1991 1309 1228 531 
z
" transform="scale(0.015625)"/>
       </defs>
       <use xlink:href="#DejaVuSans-32"/>
       <use xlink:href="#DejaVuSans-30" x="63.623047"/>
       <use xlink:href="#DejaVuSans-30" x="127.246094"/>
      </g>
     </g>
    </g>
    <g id="xtick_3">
     <g id="line2d_3">
      <g>
       <use xlink:href="#mb8538dd4f4" x="142.767328" y="339.84" style="stroke: #000000; stroke-width: 0.8"/>
      </g>
     </g>
     <g id="text_3">
      <!-- 300 -->
      <g transform="translate(132.213317 388.353576) rotate(-45) scale(0.22 -0.22)">
       <defs>
        <path id="DejaVuSans-33" d="M 2597 2516 
Q 3050 2419 3304 2112 
Q 3559 1806 3559 1356 
Q 3559 666 3084 287 
Q 2609 -91 1734 -91 
Q 1441 -91 1130 -33 
Q 819 25 488 141 
L 488 750 
Q 750 597 1062 519 
Q 1375 441 1716 441 
Q 2309 441 2620 675 
Q 2931 909 2931 1356 
Q 2931 1769 2642 2001 
Q 2353 2234 1838 2234 
L 1294 2234 
L 1294 2753 
L 1863 2753 
Q 2328 2753 2575 2939 
Q 2822 3125 2822 3475 
Q 2822 3834 2567 4026 
Q 2313 4219 1838 4219 
Q 1578 4219 1281 4162 
Q 984 4106 628 3988 
L 628 4550 
Q 988 4650 1302 4700 
Q 1616 4750 1894 4750 
Q 2613 4750 3031 4423 
Q 3450 4097 3450 3541 
Q 3450 3153 3228 2886 
Q 3006 2619 2597 2516 
z
" transform="scale(0.015625)"/>
       </defs>
       <use xlink:href="#DejaVuSans-33"/>
       <use xlink:href="#DejaVuSans-30" x="63.623047"/>
       <use xlink:href="#DejaVuSans-30" x="127.246094"/>
      </g>
     </g>
    </g>
    <g id="xtick_4">
     <g id="line2d_4">
      <g>
       <use xlink:href="#mb8538dd4f4" x="169.705259" y="339.84" style="stroke: #000000; stroke-width: 0.8"/>
      </g>
     </g>
     <g id="text_4">
      <!-- 400 -->
      <g transform="translate(159.151248 388.353576) rotate(-45) scale(0.22 -0.22)">
       <defs>
        <path id="DejaVuSans-34" d="M 2419 4116 
L 825 1625 
L 2419 1625 
L 2419 4116 
z
M 2253 4666 
L 3047 4666 
L 3047 1625 
L 3713 1625 
L 3713 1100 
L 3047 1100 
L 3047 0 
L 2419 0 
L 2419 1100 
L 313 1100 
L 313 1709 
L 2253 4666 
z
" transform="scale(0.015625)"/>
       </defs>
       <use xlink:href="#DejaVuSans-34"/>
       <use xlink:href="#DejaVuSans-30" x="63.623047"/>
       <use xlink:href="#DejaVuSans-30" x="127.246094"/>
      </g>
     </g>
    </g>
    <g id="xtick_5">
     <g id="line2d_5">
      <g>
       <use xlink:href="#mb8538dd4f4" x="196.64319" y="339.84" style="stroke: #000000; stroke-width: 0.8"/>
      </g>
     </g>
     <g id="text_5">
      <!-- 500 -->
      <g transform="translate(186.089179 388.353576) rotate(-45) scale(0.22 -0.22)">
       <defs>
        <path id="DejaVuSans-35" d="M 691 4666 
L 3169 4666 
L 3169 4134 
L 1269 4134 
L 1269 2991 
Q 1406 3038 1543 3061 
Q 1681 3084 1819 3084 
Q 2600 3084 3056 2656 
Q 3513 2228 3513 1497 
Q 3513 744 3044 326 
Q 2575 -91 1722 -91 
Q 1428 -91 1123 -41 
Q 819 9 494 109 
L 494 744 
Q 775 591 1075 516 
Q 1375 441 1709 441 
Q 2250 441 2565 725 
Q 2881 1009 2881 1497 
Q 2881 1984 2565 2268 
Q 2250 2553 1709 2553 
Q 1456 2553 1204 2497 
Q 953 2441 691 2322 
L 691 4666 
z
" transform="scale(0.015625)"/>
       </defs>
       <use xlink:href="#DejaVuSans-35"/>
       <use xlink:href="#DejaVuSans-30" x="63.623047"/>
       <use xlink:href="#DejaVuSans-30" x="127.246094"/>
      </g>
     </g>
    </g>
    <g id="xtick_6">
     <g id="line2d_6">
      <g>
       <use xlink:href="#mb8538dd4f4" x="223.581121" y="339.84" style="stroke: #000000; stroke-width: 0.8"/>
      </g>
     </g>
     <g id="text_6">
      <!-- 600 -->
      <g transform="translate(213.02711 388.353576) rotate(-45) scale(0.22 -0.22)">
       <defs>
        <path id="DejaVuSans-36" d="M 2113 2584 
Q 1688 2584 1439 2293 
Q 1191 2003 1191 1497 
Q 1191 994 1439 701 
Q 1688 409 2113 409 
Q 2538 409 2786 701 
Q 3034 994 3034 1497 
Q 3034 2003 2786 2293 
Q 2538 2584 2113 2584 
z
M 3366 4563 
L 3366 3988 
Q 3128 4100 2886 4159 
Q 2644 4219 2406 4219 
Q 1781 4219 1451 3797 
Q 1122 3375 1075 2522 
Q 1259 2794 1537 2939 
Q 1816 3084 2150 3084 
Q 2853 3084 3261 2657 
Q 3669 2231 3669 1497 
Q 3669 778 3244 343 
Q 2819 -91 2113 -91 
Q 1303 -91 875 529 
Q 447 1150 447 2328 
Q 447 3434 972 4092 
Q 1497 4750 2381 4750 
Q 2619 4750 2861 4703 
Q 3103 4656 3366 4563 
z
" transform="scale(0.015625)"/>
       </defs>
       <use xlink:href="#DejaVuSans-36"/>
       <use xlink:href="#DejaVuSans-30" x="63.623047"/>
       <use xlink:href="#DejaVuSans-30" x="127.246094"/>
      </g>
     </g>
    </g>
    <g id="xtick_7">
     <g id="line2d_7">
      <g>
       <use xlink:href="#mb8538dd4f4" x="250.519052" y="339.84" style="stroke: #000000; stroke-width: 0.8"/>
      </g>
     </g>
     <g id="text_7">
      <!-- 700 -->
      <g transform="translate(239.965041 388.353576) rotate(-45) scale(0.22 -0.22)">
       <defs>
        <path id="DejaVuSans-37" d="M 525 4666 
L 3525 4666 
L 3525 4397 
L 1831 0 
L 1172 0 
L 2766 4134 
L 525 4134 
L 525 4666 
z
" transform="scale(0.015625)"/>
       </defs>
       <use xlink:href="#DejaVuSans-37"/>
       <use xlink:href="#DejaVuSans-30" x="63.623047"/>
       <use xlink:href="#DejaVuSans-30" x="127.246094"/>
      </g>
     </g>
    </g>
    <g id="xtick_8">
     <g id="line2d_8">
      <g>
       <use xlink:href="#mb8538dd4f4" x="277.456983" y="339.84" style="stroke: #000000; stroke-width: 0.8"/>
      </g>
     </g>
     <g id="text_8">
      <!-- 800 -->
      <g transform="translate(266.902972 388.353576) rotate(-45) scale(0.22 -0.22)">
       <defs>
        <path id="DejaVuSans-38" d="M 2034 2216 
Q 1584 2216 1326 1975 
Q 1069 1734 1069 1313 
Q 1069 891 1326 650 
Q 1584 409 2034 409 
Q 2484 409 2743 651 
Q 3003 894 3003 1313 
Q 3003 1734 2745 1975 
Q 2488 2216 2034 2216 
z
M 1403 2484 
Q 997 2584 770 2862 
Q 544 3141 544 3541 
Q 544 4100 942 4425 
Q 1341 4750 2034 4750 
Q 2731 4750 3128 4425 
Q 3525 4100 3525 3541 
Q 3525 3141 3298 2862 
Q 3072 2584 2669 2484 
Q 3125 2378 3379 2068 
Q 3634 1759 3634 1313 
Q 3634 634 3220 271 
Q 2806 -91 2034 -91 
Q 1263 -91 848 271 
Q 434 634 434 1313 
Q 434 1759 690 2068 
Q 947 2378 1403 2484 
z
M 1172 3481 
Q 1172 3119 1398 2916 
Q 1625 2713 2034 2713 
Q 2441 2713 2670 2916 
Q 2900 3119 2900 3481 
Q 2900 3844 2670 4047 
Q 2441 4250 2034 4250 
Q 1625 4250 1398 4047 
Q 1172 3844 1172 3481 
z
" transform="scale(0.015625)"/>
       </defs>
       <use xlink:href="#DejaVuSans-38"/>
       <use xlink:href="#DejaVuSans-30" x="63.623047"/>
       <use xlink:href="#DejaVuSans-30" x="127.246094"/>
      </g>
     </g>
    </g>
    <g id="xtick_9">
     <g id="line2d_9">
      <g>
       <use xlink:href="#mb8538dd4f4" x="304.394914" y="339.84" style="stroke: #000000; stroke-width: 0.8"/>
      </g>
     </g>
     <g id="text_9">
      <!-- 900 -->
      <g transform="translate(293.840903 388.353576) rotate(-45) scale(0.22 -0.22)">
       <defs>
        <path id="DejaVuSans-39" d="M 703 97 
L 703 672 
Q 941 559 1184 500 
Q 1428 441 1663 441 
Q 2288 441 2617 861 
Q 2947 1281 2994 2138 
Q 2813 1869 2534 1725 
Q 2256 1581 1919 1581 
Q 1219 1581 811 2004 
Q 403 2428 403 3163 
Q 403 3881 828 4315 
Q 1253 4750 1959 4750 
Q 2769 4750 3195 4129 
Q 3622 3509 3622 2328 
Q 3622 1225 3098 567 
Q 2575 -91 1691 -91 
Q 1453 -91 1209 -44 
Q 966 3 703 97 
z
M 1959 2075 
Q 2384 2075 2632 2365 
Q 2881 2656 2881 3163 
Q 2881 3666 2632 3958 
Q 2384 4250 1959 4250 
Q 1534 4250 1286 3958 
Q 1038 3666 1038 3163 
Q 1038 2656 1286 2365 
Q 1534 2075 1959 2075 
z
" transform="scale(0.015625)"/>
       </defs>
       <use xlink:href="#DejaVuSans-39"/>
       <use xlink:href="#DejaVuSans-30" x="63.623047"/>
       <use xlink:href="#DejaVuSans-30" x="127.246094"/>
      </g>
     </g>
    </g>
    <g id="xtick_10">
     <g id="line2d_10">
      <g>
       <use xlink:href="#mb8538dd4f4" x="331.332845" y="339.84" style="stroke: #000000; stroke-width: 0.8"/>
      </g>
     </g>
     <g id="text_10">
      <!-- 1000 -->
      <g transform="translate(315.829971 398.251303) rotate(-45) scale(0.22 -0.22)">
       <use xlink:href="#DejaVuSans-31"/>
       <use xlink:href="#DejaVuSans-30" x="63.623047"/>
       <use xlink:href="#DejaVuSans-30" x="127.246094"/>
       <use xlink:href="#DejaVuSans-30" x="190.869141"/>
      </g>
     </g>
    </g>
    <g id="xtick_11">
     <g id="line2d_11">
      <g>
       <use xlink:href="#mb8538dd4f4" x="358.270776" y="339.84" style="stroke: #000000; stroke-width: 0.8"/>
      </g>
     </g>
     <g id="text_11">
      <!-- 1100 -->
      <g transform="translate(342.767902 398.251303) rotate(-45) scale(0.22 -0.22)">
       <use xlink:href="#DejaVuSans-31"/>
       <use xlink:href="#DejaVuSans-31" x="63.623047"/>
       <use xlink:href="#DejaVuSans-30" x="127.246094"/>
       <use xlink:href="#DejaVuSans-30" x="190.869141"/>
      </g>
     </g>
    </g>
    <g id="xtick_12">
     <g id="line2d_12">
      <g>
       <use xlink:href="#mb8538dd4f4" x="385.208707" y="339.84" style="stroke: #000000; stroke-width: 0.8"/>
      </g>
     </g>
     <g id="text_12">
      <!-- 1200 -->
      <g transform="translate(369.705833 398.251303) rotate(-45) scale(0.22 -0.22)">
       <use xlink:href="#DejaVuSans-31"/>
       <use xlink:href="#DejaVuSans-32" x="63.623047"/>
       <use xlink:href="#DejaVuSans-30" x="127.246094"/>
       <use xlink:href="#DejaVuSans-30" x="190.869141"/>
      </g>
     </g>
    </g>
    <g id="xtick_13">
     <g id="line2d_13">
      <g>
       <use xlink:href="#mb8538dd4f4" x="412.146638" y="339.84" style="stroke: #000000; stroke-width: 0.8"/>
      </g>
     </g>
     <g id="text_13">
      <!-- 1300 -->
      <g transform="translate(396.643764 398.251303) rotate(-45) scale(0.22 -0.22)">
       <use xlink:href="#DejaVuSans-31"/>
       <use xlink:href="#DejaVuSans-33" x="63.623047"/>
       <use xlink:href="#DejaVuSans-30" x="127.246094"/>
       <use xlink:href="#DejaVuSans-30" x="190.869141"/>
      </g>
     </g>
    </g>
    <g id="xtick_14">
     <g id="line2d_14">
      <g>
       <use xlink:href="#mb8538dd4f4" x="439.084569" y="339.84" style="stroke: #000000; stroke-width: 0.8"/>
      </g>
     </g>
     <g id="text_14">
      <!-- 1400 -->
      <g transform="translate(423.581695 398.251303) rotate(-45) scale(0.22 -0.22)">
       <use xlink:href="#DejaVuSans-31"/>
       <use xlink:href="#DejaVuSans-34" x="63.623047"/>
       <use xlink:href="#DejaVuSans-30" x="127.246094"/>
       <use xlink:href="#DejaVuSans-30" x="190.869141"/>
      </g>
     </g>
    </g>
    <g id="xtick_15">
     <g id="line2d_15">
      <g>
       <use xlink:href="#mb8538dd4f4" x="466.0225" y="339.84" style="stroke: #000000; stroke-width: 0.8"/>
      </g>
     </g>
     <g id="text_15">
      <!-- 1500 -->
      <g transform="translate(450.519626 398.251303) rotate(-45) scale(0.22 -0.22)">
       <use xlink:href="#DejaVuSans-31"/>
       <use xlink:href="#DejaVuSans-35" x="63.623047"/>
       <use xlink:href="#DejaVuSans-30" x="127.246094"/>
       <use xlink:href="#DejaVuSans-30" x="190.869141"/>
      </g>
     </g>
    </g>
    <g id="xtick_16">
     <g id="line2d_16">
      <g>
       <use xlink:href="#mb8538dd4f4" x="492.960431" y="339.84" style="stroke: #000000; stroke-width: 0.8"/>
      </g>
     </g>
     <g id="text_16">
      <!-- 1600 -->
      <g transform="translate(477.457557 398.251303) rotate(-45) scale(0.22 -0.22)">
       <use xlink:href="#DejaVuSans-31"/>
       <use xlink:href="#DejaVuSans-36" x="63.623047"/>
       <use xlink:href="#DejaVuSans-30" x="127.246094"/>
       <use xlink:href="#DejaVuSans-30" x="190.869141"/>
      </g>
     </g>
    </g>
    <g id="xtick_17">
     <g id="line2d_17">
      <g>
       <use xlink:href="#mb8538dd4f4" x="519.898362" y="339.84" style="stroke: #000000; stroke-width: 0.8"/>
      </g>
     </g>
     <g id="text_17">
      <!-- 1700 -->
      <g transform="translate(504.395488 398.251303) rotate(-45) scale(0.22 -0.22)">
       <use xlink:href="#DejaVuSans-31"/>
       <use xlink:href="#DejaVuSans-37" x="63.623047"/>
       <use xlink:href="#DejaVuSans-30" x="127.246094"/>
       <use xlink:href="#DejaVuSans-30" x="190.869141"/>
      </g>
     </g>
    </g>
    <g id="xtick_18">
     <g id="line2d_18">
      <g>
       <use xlink:href="#mb8538dd4f4" x="546.836293" y="339.84" style="stroke: #000000; stroke-width: 0.8"/>
      </g>
     </g>
     <g id="text_18">
      <!-- 1800 -->
      <g transform="translate(531.333419 398.251303) rotate(-45) scale(0.22 -0.22)">
       <use xlink:href="#DejaVuSans-31"/>
       <use xlink:href="#DejaVuSans-38" x="63.623047"/>
       <use xlink:href="#DejaVuSans-30" x="127.246094"/>
       <use xlink:href="#DejaVuSans-30" x="190.869141"/>
      </g>
     </g>
    </g>
    <g id="xtick_19">
     <g id="line2d_19">
      <g>
       <use xlink:href="#mb8538dd4f4" x="573.774224" y="339.84" style="stroke: #000000; stroke-width: 0.8"/>
      </g>
     </g>
     <g id="text_19">
      <!-- 1900 -->
      <g transform="translate(558.27135 398.251303) rotate(-45) scale(0.22 -0.22)">
       <use xlink:href="#DejaVuSans-31"/>
       <use xlink:href="#DejaVuSans-39" x="63.623047"/>
       <use xlink:href="#DejaVuSans-30" x="127.246094"/>
       <use xlink:href="#DejaVuSans-30" x="190.869141"/>
      </g>
     </g>
    </g>
    <g id="xtick_20">
     <g id="line2d_20">
      <g>
       <use xlink:href="#mb8538dd4f4" x="600.712155" y="339.84" style="stroke: #000000; stroke-width: 0.8"/>
      </g>
     </g>
     <g id="text_20">
      <!-- 2000 -->
      <g transform="translate(585.209281 398.251303) rotate(-45) scale(0.22 -0.22)">
       <use xlink:href="#DejaVuSans-32"/>
       <use xlink:href="#DejaVuSans-30" x="63.623047"/>
       <use xlink:href="#DejaVuSans-30" x="127.246094"/>
       <use xlink:href="#DejaVuSans-30" x="190.869141"/>
      </g>
     </g>
    </g>
    <g id="xtick_21">
     <g id="line2d_21">
      <g>
       <use xlink:href="#mb8538dd4f4" x="627.650086" y="339.84" style="stroke: #000000; stroke-width: 0.8"/>
      </g>
     </g>
     <g id="text_21">
      <!-- 2100 -->
      <g transform="translate(612.147212 398.251303) rotate(-45) scale(0.22 -0.22)">
       <use xlink:href="#DejaVuSans-32"/>
       <use xlink:href="#DejaVuSans-31" x="63.623047"/>
       <use xlink:href="#DejaVuSans-30" x="127.246094"/>
       <use xlink:href="#DejaVuSans-30" x="190.869141"/>
      </g>
     </g>
    </g>
    <g id="xtick_22">
     <g id="line2d_22">
      <g>
       <use xlink:href="#mb8538dd4f4" x="654.588017" y="339.84" style="stroke: #000000; stroke-width: 0.8"/>
      </g>
     </g>
     <g id="text_22">
      <!-- 2200 -->
      <g transform="translate(639.085143 398.251303) rotate(-45) scale(0.22 -0.22)">
       <use xlink:href="#DejaVuSans-32"/>
       <use xlink:href="#DejaVuSans-32" x="63.623047"/>
       <use xlink:href="#DejaVuSans-30" x="127.246094"/>
       <use xlink:href="#DejaVuSans-30" x="190.869141"/>
      </g>
     </g>
    </g>
    <g id="xtick_23">
     <g id="line2d_23">
      <g>
       <use xlink:href="#mb8538dd4f4" x="681.525948" y="339.84" style="stroke: #000000; stroke-width: 0.8"/>
      </g>
     </g>
     <g id="text_23">
      <!-- 2300 -->
      <g transform="translate(666.023074 398.251303) rotate(-45) scale(0.22 -0.22)">
       <use xlink:href="#DejaVuSans-32"/>
       <use xlink:href="#DejaVuSans-33" x="63.623047"/>
       <use xlink:href="#DejaVuSans-30" x="127.246094"/>
       <use xlink:href="#DejaVuSans-30" x="190.869141"/>
      </g>
     </g>
    </g>
    <g id="xtick_24">
     <g id="line2d_24">
      <g>
       <use xlink:href="#mb8538dd4f4" x="708.463879" y="339.84" style="stroke: #000000; stroke-width: 0.8"/>
      </g>
     </g>
     <g id="text_24">
      <!-- 2400 -->
      <g transform="translate(692.961005 398.251303) rotate(-45) scale(0.22 -0.22)">
       <use xlink:href="#DejaVuSans-32"/>
       <use xlink:href="#DejaVuSans-34" x="63.623047"/>
       <use xlink:href="#DejaVuSans-30" x="127.246094"/>
       <use xlink:href="#DejaVuSans-30" x="190.869141"/>
      </g>
     </g>
    </g>
    <g id="xtick_25">
     <g id="line2d_25">
      <g>
       <use xlink:href="#mb8538dd4f4" x="735.40181" y="339.84" style="stroke: #000000; stroke-width: 0.8"/>
      </g>
     </g>
     <g id="text_25">
      <!-- 2500 -->
      <g transform="translate(719.898936 398.251303) rotate(-45) scale(0.22 -0.22)">
       <use xlink:href="#DejaVuSans-32"/>
       <use xlink:href="#DejaVuSans-35" x="63.623047"/>
       <use xlink:href="#DejaVuSans-30" x="127.246094"/>
       <use xlink:href="#DejaVuSans-30" x="190.869141"/>
      </g>
     </g>
    </g>
    <g id="xtick_26">
     <g id="line2d_26">
      <g>
       <use xlink:href="#mb8538dd4f4" x="762.339741" y="339.84" style="stroke: #000000; stroke-width: 0.8"/>
      </g>
     </g>
     <g id="text_26">
      <!-- 2600 -->
      <g transform="translate(746.836867 398.251303) rotate(-45) scale(0.22 -0.22)">
       <use xlink:href="#DejaVuSans-32"/>
       <use xlink:href="#DejaVuSans-36" x="63.623047"/>
       <use xlink:href="#DejaVuSans-30" x="127.246094"/>
       <use xlink:href="#DejaVuSans-30" x="190.869141"/>
      </g>
     </g>
    </g>
    <g id="xtick_27">
     <g id="line2d_27">
      <g>
       <use xlink:href="#mb8538dd4f4" x="789.277672" y="339.84" style="stroke: #000000; stroke-width: 0.8"/>
      </g>
     </g>
     <g id="text_27">
      <!-- 2700 -->
      <g transform="translate(773.774798 398.251303) rotate(-45) scale(0.22 -0.22)">
       <use xlink:href="#DejaVuSans-32"/>
       <use xlink:href="#DejaVuSans-37" x="63.623047"/>
       <use xlink:href="#DejaVuSans-30" x="127.246094"/>
       <use xlink:href="#DejaVuSans-30" x="190.869141"/>
      </g>
     </g>
    </g>
    <g id="xtick_28">
     <g id="line2d_28">
      <g>
       <use xlink:href="#mb8538dd4f4" x="816.215603" y="339.84" style="stroke: #000000; stroke-width: 0.8"/>
      </g>
     </g>
     <g id="text_28">
      <!-- 2800 -->
      <g transform="translate(800.712729 398.251303) rotate(-45) scale(0.22 -0.22)">
       <use xlink:href="#DejaVuSans-32"/>
       <use xlink:href="#DejaVuSans-38" x="63.623047"/>
       <use xlink:href="#DejaVuSans-30" x="127.246094"/>
       <use xlink:href="#DejaVuSans-30" x="190.869141"/>
      </g>
     </g>
    </g>
    <g id="xtick_29">
     <g id="line2d_29">
      <g>
       <use xlink:href="#mb8538dd4f4" x="843.153534" y="339.84" style="stroke: #000000; stroke-width: 0.8"/>
      </g>
     </g>
     <g id="text_29">
      <!-- 2900 -->
      <g transform="translate(827.65066 398.251303) rotate(-45) scale(0.22 -0.22)">
       <use xlink:href="#DejaVuSans-32"/>
       <use xlink:href="#DejaVuSans-39" x="63.623047"/>
       <use xlink:href="#DejaVuSans-30" x="127.246094"/>
       <use xlink:href="#DejaVuSans-30" x="190.869141"/>
      </g>
     </g>
    </g>
    <g id="text_30">
     <!-- Curve radius [m] -->
     <g transform="translate(364.84375 429.722788) scale(0.24 -0.24)">
      <defs>
       <path id="DejaVuSans-43" d="M 4122 4306 
L 4122 3641 
Q 3803 3938 3442 4084 
Q 3081 4231 2675 4231 
Q 1875 4231 1450 3742 
Q 1025 3253 1025 2328 
Q 1025 1406 1450 917 
Q 1875 428 2675 428 
Q 3081 428 3442 575 
Q 3803 722 4122 1019 
L 4122 359 
Q 3791 134 3420 21 
Q 3050 -91 2638 -91 
Q 1578 -91 968 557 
Q 359 1206 359 2328 
Q 359 3453 968 4101 
Q 1578 4750 2638 4750 
Q 3056 4750 3426 4639 
Q 3797 4528 4122 4306 
z
" transform="scale(0.015625)"/>
       <path id="DejaVuSans-75" d="M 544 1381 
L 544 3500 
L 1119 3500 
L 1119 1403 
Q 1119 906 1312 657 
Q 1506 409 1894 409 
Q 2359 409 2629 706 
Q 2900 1003 2900 1516 
L 2900 3500 
L 3475 3500 
L 3475 0 
L 2900 0 
L 2900 538 
Q 2691 219 2414 64 
Q 2138 -91 1772 -91 
Q 1169 -91 856 284 
Q 544 659 544 1381 
z
M 1991 3584 
L 1991 3584 
z
" transform="scale(0.015625)"/>
       <path id="DejaVuSans-72" d="M 2631 2963 
Q 2534 3019 2420 3045 
Q 2306 3072 2169 3072 
Q 1681 3072 1420 2755 
Q 1159 2438 1159 1844 
L 1159 0 
L 581 0 
L 581 3500 
L 1159 3500 
L 1159 2956 
Q 1341 3275 1631 3429 
Q 1922 3584 2338 3584 
Q 2397 3584 2469 3576 
Q 2541 3569 2628 3553 
L 2631 2963 
z
" transform="scale(0.015625)"/>
       <path id="DejaVuSans-76" d="M 191 3500 
L 800 3500 
L 1894 563 
L 2988 3500 
L 3597 3500 
L 2284 0 
L 1503 0 
L 191 3500 
z
" transform="scale(0.015625)"/>
       <path id="DejaVuSans-65" d="M 3597 1894 
L 3597 1613 
L 953 1613 
Q 991 1019 1311 708 
Q 1631 397 2203 397 
Q 2534 397 2845 478 
Q 3156 559 3463 722 
L 3463 178 
Q 3153 47 2828 -22 
Q 2503 -91 2169 -91 
Q 1331 -91 842 396 
Q 353 884 353 1716 
Q 353 2575 817 3079 
Q 1281 3584 2069 3584 
Q 2775 3584 3186 3129 
Q 3597 2675 3597 1894 
z
M 3022 2063 
Q 3016 2534 2758 2815 
Q 2500 3097 2075 3097 
Q 1594 3097 1305 2825 
Q 1016 2553 972 2059 
L 3022 2063 
z
" transform="scale(0.015625)"/>
       <path id="DejaVuSans-20" transform="scale(0.015625)"/>
       <path id="DejaVuSans-61" d="M 2194 1759 
Q 1497 1759 1228 1600 
Q 959 1441 959 1056 
Q 959 750 1161 570 
Q 1363 391 1709 391 
Q 2188 391 2477 730 
Q 2766 1069 2766 1631 
L 2766 1759 
L 2194 1759 
z
M 3341 1997 
L 3341 0 
L 2766 0 
L 2766 531 
Q 2569 213 2275 61 
Q 1981 -91 1556 -91 
Q 1019 -91 701 211 
Q 384 513 384 1019 
Q 384 1609 779 1909 
Q 1175 2209 1959 2209 
L 2766 2209 
L 2766 2266 
Q 2766 2663 2505 2880 
Q 2244 3097 1772 3097 
Q 1472 3097 1187 3025 
Q 903 2953 641 2809 
L 641 3341 
Q 956 3463 1253 3523 
Q 1550 3584 1831 3584 
Q 2591 3584 2966 3190 
Q 3341 2797 3341 1997 
z
" transform="scale(0.015625)"/>
       <path id="DejaVuSans-64" d="M 2906 2969 
L 2906 4863 
L 3481 4863 
L 3481 0 
L 2906 0 
L 2906 525 
Q 2725 213 2448 61 
Q 2172 -91 1784 -91 
Q 1150 -91 751 415 
Q 353 922 353 1747 
Q 353 2572 751 3078 
Q 1150 3584 1784 3584 
Q 2172 3584 2448 3432 
Q 2725 3281 2906 2969 
z
M 947 1747 
Q 947 1113 1208 752 
Q 1469 391 1925 391 
Q 2381 391 2643 752 
Q 2906 1113 2906 1747 
Q 2906 2381 2643 2742 
Q 2381 3103 1925 3103 
Q 1469 3103 1208 2742 
Q 947 2381 947 1747 
z
" transform="scale(0.015625)"/>
       <path id="DejaVuSans-69" d="M 603 3500 
L 1178 3500 
L 1178 0 
L 603 0 
L 603 3500 
z
M 603 4863 
L 1178 4863 
L 1178 4134 
L 603 4134 
L 603 4863 
z
" transform="scale(0.015625)"/>
       <path id="DejaVuSans-73" d="M 2834 3397 
L 2834 2853 
Q 2591 2978 2328 3040 
Q 2066 3103 1784 3103 
Q 1356 3103 1142 2972 
Q 928 2841 928 2578 
Q 928 2378 1081 2264 
Q 1234 2150 1697 2047 
L 1894 2003 
Q 2506 1872 2764 1633 
Q 3022 1394 3022 966 
Q 3022 478 2636 193 
Q 2250 -91 1575 -91 
Q 1294 -91 989 -36 
Q 684 19 347 128 
L 347 722 
Q 666 556 975 473 
Q 1284 391 1588 391 
Q 1994 391 2212 530 
Q 2431 669 2431 922 
Q 2431 1156 2273 1281 
Q 2116 1406 1581 1522 
L 1381 1569 
Q 847 1681 609 1914 
Q 372 2147 372 2553 
Q 372 3047 722 3315 
Q 1072 3584 1716 3584 
Q 2034 3584 2315 3537 
Q 2597 3491 2834 3397 
z
" transform="scale(0.015625)"/>
       <path id="DejaVuSans-5b" d="M 550 4863 
L 1875 4863 
L 1875 4416 
L 1125 4416 
L 1125 -397 
L 1875 -397 
L 1875 -844 
L 550 -844 
L 550 4863 
z
" transform="scale(0.015625)"/>
       <path id="DejaVuSans-6d" d="M 3328 2828 
Q 3544 3216 3844 3400 
Q 4144 3584 4550 3584 
Q 5097 3584 5394 3201 
Q 5691 2819 5691 2113 
L 5691 0 
L 5113 0 
L 5113 2094 
Q 5113 2597 4934 2840 
Q 4756 3084 4391 3084 
Q 3944 3084 3684 2787 
Q 3425 2491 3425 1978 
L 3425 0 
L 2847 0 
L 2847 2094 
Q 2847 2600 2669 2842 
Q 2491 3084 2119 3084 
Q 1678 3084 1418 2786 
Q 1159 2488 1159 1978 
L 1159 0 
L 581 0 
L 581 3500 
L 1159 3500 
L 1159 2956 
Q 1356 3278 1631 3431 
Q 1906 3584 2284 3584 
Q 2666 3584 2933 3390 
Q 3200 3197 3328 2828 
z
" transform="scale(0.015625)"/>
       <path id="DejaVuSans-5d" d="M 1947 4863 
L 1947 -844 
L 622 -844 
L 622 -397 
L 1369 -397 
L 1369 4416 
L 622 4416 
L 622 4863 
L 1947 4863 
z
" transform="scale(0.015625)"/>
      </defs>
      <use xlink:href="#DejaVuSans-43"/>
      <use xlink:href="#DejaVuSans-75" x="69.824219"/>
      <use xlink:href="#DejaVuSans-72" x="133.203125"/>
      <use xlink:href="#DejaVuSans-76" x="174.316406"/>
      <use xlink:href="#DejaVuSans-65" x="233.496094"/>
      <use xlink:href="#DejaVuSans-20" x="295.019531"/>
      <use xlink:href="#DejaVuSans-72" x="326.806641"/>
      <use xlink:href="#DejaVuSans-61" x="367.919922"/>
      <use xlink:href="#DejaVuSans-64" x="429.199219"/>
      <use xlink:href="#DejaVuSans-69" x="492.675781"/>
      <use xlink:href="#DejaVuSans-75" x="520.458984"/>
      <use xlink:href="#DejaVuSans-73" x="583.837891"/>
      <use xlink:href="#DejaVuSans-20" x="635.9375"/>
      <use xlink:href="#DejaVuSans-5b" x="667.724609"/>
      <use xlink:href="#DejaVuSans-6d" x="706.738281"/>
      <use xlink:href="#DejaVuSans-5d" x="804.150391"/>
     </g>
    </g>
   </g>
   <g id="matplotlib.axis_2">
    <g id="ytick_1">
     <g id="line2d_30">
      <defs>
       <path id="m647a121064" d="M 0 0 
L -3.5 0 
" style="stroke: #000000; stroke-width: 0.8"/>
      </defs>
      <g>
       <use xlink:href="#m647a121064" x="75.4225" y="339.84" style="stroke: #000000; stroke-width: 0.8"/>
      </g>
     </g>
     <g id="text_31">
      <!-- 0 -->
      <g transform="translate(54.425 348.198281) scale(0.22 -0.22)">
       <use xlink:href="#DejaVuSans-30"/>
      </g>
     </g>
    </g>
    <g id="ytick_2">
     <g id="line2d_31">
      <g>
       <use xlink:href="#m647a121064" x="75.4225" y="288.664615" style="stroke: #000000; stroke-width: 0.8"/>
      </g>
     </g>
     <g id="text_32">
      <!-- 2 -->
      <g transform="translate(54.425 297.022897) scale(0.22 -0.22)">
       <use xlink:href="#DejaVuSans-32"/>
      </g>
     </g>
    </g>
    <g id="ytick_3">
     <g id="line2d_32">
      <g>
       <use xlink:href="#m647a121064" x="75.4225" y="237.489231" style="stroke: #000000; stroke-width: 0.8"/>
      </g>
     </g>
     <g id="text_33">
      <!-- 4 -->
      <g transform="translate(54.425 245.847512) scale(0.22 -0.22)">
       <use xlink:href="#DejaVuSans-34"/>
      </g>
     </g>
    </g>
    <g id="ytick_4">
     <g id="line2d_33">
      <g>
       <use xlink:href="#m647a121064" x="75.4225" y="186.313846" style="stroke: #000000; stroke-width: 0.8"/>
      </g>
     </g>
     <g id="text_34">
      <!-- 6 -->
      <g transform="translate(54.425 194.672127) scale(0.22 -0.22)">
       <use xlink:href="#DejaVuSans-36"/>
      </g>
     </g>
    </g>
    <g id="ytick_5">
     <g id="line2d_34">
      <g>
       <use xlink:href="#m647a121064" x="75.4225" y="135.138462" style="stroke: #000000; stroke-width: 0.8"/>
      </g>
     </g>
     <g id="text_35">
      <!-- 8 -->
      <g transform="translate(54.425 143.496743) scale(0.22 -0.22)">
       <use xlink:href="#DejaVuSans-38"/>
      </g>
     </g>
    </g>
    <g id="ytick_6">
     <g id="line2d_35">
      <g>
       <use xlink:href="#m647a121064" x="75.4225" y="83.963077" style="stroke: #000000; stroke-width: 0.8"/>
      </g>
     </g>
     <g id="text_36">
      <!-- 10 -->
      <g transform="translate(40.4275 92.321358) scale(0.22 -0.22)">
       <use xlink:href="#DejaVuSans-31"/>
       <use xlink:href="#DejaVuSans-30" x="63.623047"/>
      </g>
     </g>
    </g>
    <g id="ytick_7">
     <g id="line2d_36">
      <g>
       <use xlink:href="#m647a121064" x="75.4225" y="32.787692" style="stroke: #000000; stroke-width: 0.8"/>
      </g>
     </g>
     <g id="text_37">
      <!-- 12 -->
      <g transform="translate(40.4275 41.145974) scale(0.22 -0.22)">
       <use xlink:href="#DejaVuSans-31"/>
       <use xlink:href="#DejaVuSans-32" x="63.623047"/>
      </g>
     </g>
    </g>
    <g id="text_38">
     <!-- Length of curves [km] -->
     <g transform="translate(25.43625 305.795625) rotate(-90) scale(0.24 -0.24)">
      <defs>
       <path id="DejaVuSans-4c" d="M 628 4666 
L 1259 4666 
L 1259 531 
L 3531 531 
L 3531 0 
L 628 0 
L 628 4666 
z
" transform="scale(0.015625)"/>
       <path id="DejaVuSans-6e" d="M 3513 2113 
L 3513 0 
L 2938 0 
L 2938 2094 
Q 2938 2591 2744 2837 
Q 2550 3084 2163 3084 
Q 1697 3084 1428 2787 
Q 1159 2491 1159 1978 
L 1159 0 
L 581 0 
L 581 3500 
L 1159 3500 
L 1159 2956 
Q 1366 3272 1645 3428 
Q 1925 3584 2291 3584 
Q 2894 3584 3203 3211 
Q 3513 2838 3513 2113 
z
" transform="scale(0.015625)"/>
       <path id="DejaVuSans-67" d="M 2906 1791 
Q 2906 2416 2648 2759 
Q 2391 3103 1925 3103 
Q 1463 3103 1205 2759 
Q 947 2416 947 1791 
Q 947 1169 1205 825 
Q 1463 481 1925 481 
Q 2391 481 2648 825 
Q 2906 1169 2906 1791 
z
M 3481 434 
Q 3481 -459 3084 -895 
Q 2688 -1331 1869 -1331 
Q 1566 -1331 1297 -1286 
Q 1028 -1241 775 -1147 
L 775 -588 
Q 1028 -725 1275 -790 
Q 1522 -856 1778 -856 
Q 2344 -856 2625 -561 
Q 2906 -266 2906 331 
L 2906 616 
Q 2728 306 2450 153 
Q 2172 0 1784 0 
Q 1141 0 747 490 
Q 353 981 353 1791 
Q 353 2603 747 3093 
Q 1141 3584 1784 3584 
Q 2172 3584 2450 3431 
Q 2728 3278 2906 2969 
L 2906 3500 
L 3481 3500 
L 3481 434 
z
" transform="scale(0.015625)"/>
       <path id="DejaVuSans-74" d="M 1172 4494 
L 1172 3500 
L 2356 3500 
L 2356 3053 
L 1172 3053 
L 1172 1153 
Q 1172 725 1289 603 
Q 1406 481 1766 481 
L 2356 481 
L 2356 0 
L 1766 0 
Q 1100 0 847 248 
Q 594 497 594 1153 
L 594 3053 
L 172 3053 
L 172 3500 
L 594 3500 
L 594 4494 
L 1172 4494 
z
" transform="scale(0.015625)"/>
       <path id="DejaVuSans-68" d="M 3513 2113 
L 3513 0 
L 2938 0 
L 2938 2094 
Q 2938 2591 2744 2837 
Q 2550 3084 2163 3084 
Q 1697 3084 1428 2787 
Q 1159 2491 1159 1978 
L 1159 0 
L 581 0 
L 581 4863 
L 1159 4863 
L 1159 2956 
Q 1366 3272 1645 3428 
Q 1925 3584 2291 3584 
Q 2894 3584 3203 3211 
Q 3513 2838 3513 2113 
z
" transform="scale(0.015625)"/>
       <path id="DejaVuSans-6f" d="M 1959 3097 
Q 1497 3097 1228 2736 
Q 959 2375 959 1747 
Q 959 1119 1226 758 
Q 1494 397 1959 397 
Q 2419 397 2687 759 
Q 2956 1122 2956 1747 
Q 2956 2369 2687 2733 
Q 2419 3097 1959 3097 
z
M 1959 3584 
Q 2709 3584 3137 3096 
Q 3566 2609 3566 1747 
Q 3566 888 3137 398 
Q 2709 -91 1959 -91 
Q 1206 -91 779 398 
Q 353 888 353 1747 
Q 353 2609 779 3096 
Q 1206 3584 1959 3584 
z
" transform="scale(0.015625)"/>
       <path id="DejaVuSans-66" d="M 2375 4863 
L 2375 4384 
L 1825 4384 
Q 1516 4384 1395 4259 
Q 1275 4134 1275 3809 
L 1275 3500 
L 2222 3500 
L 2222 3053 
L 1275 3053 
L 1275 0 
L 697 0 
L 697 3053 
L 147 3053 
L 147 3500 
L 697 3500 
L 697 3744 
Q 697 4328 969 4595 
Q 1241 4863 1831 4863 
L 2375 4863 
z
" transform="scale(0.015625)"/>
       <path id="DejaVuSans-63" d="M 3122 3366 
L 3122 2828 
Q 2878 2963 2633 3030 
Q 2388 3097 2138 3097 
Q 1578 3097 1268 2742 
Q 959 2388 959 1747 
Q 959 1106 1268 751 
Q 1578 397 2138 397 
Q 2388 397 2633 464 
Q 2878 531 3122 666 
L 3122 134 
Q 2881 22 2623 -34 
Q 2366 -91 2075 -91 
Q 1284 -91 818 406 
Q 353 903 353 1747 
Q 353 2603 823 3093 
Q 1294 3584 2113 3584 
Q 2378 3584 2631 3529 
Q 2884 3475 3122 3366 
z
" transform="scale(0.015625)"/>
       <path id="DejaVuSans-6b" d="M 581 4863 
L 1159 4863 
L 1159 1991 
L 2875 3500 
L 3609 3500 
L 1753 1863 
L 3688 0 
L 2938 0 
L 1159 1709 
L 1159 0 
L 581 0 
L 581 4863 
z
" transform="scale(0.015625)"/>
      </defs>
      <use xlink:href="#DejaVuSans-4c"/>
      <use xlink:href="#DejaVuSans-65" x="53.962891"/>
      <use xlink:href="#DejaVuSans-6e" x="115.486328"/>
      <use xlink:href="#DejaVuSans-67" x="178.865234"/>
      <use xlink:href="#DejaVuSans-74" x="242.341797"/>
      <use xlink:href="#DejaVuSans-68" x="281.550781"/>
      <use xlink:href="#DejaVuSans-20" x="344.929688"/>
      <use xlink:href="#DejaVuSans-6f" x="376.716797"/>
      <use xlink:href="#DejaVuSans-66" x="437.898438"/>
      <use xlink:href="#DejaVuSans-20" x="473.103516"/>
      <use xlink:href="#DejaVuSans-63" x="504.890625"/>
      <use xlink:href="#DejaVuSans-75" x="559.871094"/>
      <use xlink:href="#DejaVuSans-72" x="623.25"/>
      <use xlink:href="#DejaVuSans-76" x="664.363281"/>
      <use xlink:href="#DejaVuSans-65" x="723.542969"/>
      <use xlink:href="#DejaVuSans-73" x="785.066406"/>
      <use xlink:href="#DejaVuSans-20" x="837.166016"/>
      <use xlink:href="#DejaVuSans-5b" x="868.953125"/>
      <use xlink:href="#DejaVuSans-6b" x="907.966797"/>
      <use xlink:href="#DejaVuSans-6d" x="965.876953"/>
      <use xlink:href="#DejaVuSans-5d" x="1063.289062"/>
     </g>
    </g>
   </g>
   <g id="patch_119">
    <path d="M 75.4225 339.84 
L 75.4225 7.2 
" style="fill: none; stroke: #000000; stroke-width: 0.8; stroke-linejoin: miter; stroke-linecap: square"/>
   </g>
   <g id="patch_120">
    <path d="M 856.6225 339.84 
L 856.6225 7.2 
" style="fill: none; stroke: #000000; stroke-width: 0.8; stroke-linejoin: miter; stroke-linecap: square"/>
   </g>
   <g id="patch_121">
    <path d="M 75.4225 339.84 
L 856.6225 339.84 
" style="fill: none; stroke: #000000; stroke-width: 0.8; stroke-linejoin: miter; stroke-linecap: square"/>
   </g>
   <g id="patch_122">
    <path d="M 75.4225 7.2 
L 856.6225 7.2 
" style="fill: none; stroke: #000000; stroke-width: 0.8; stroke-linejoin: miter; stroke-linecap: square"/>
   </g>
   <g id="legend_1">
    <g id="patch_123">
     <path d="M 407.8225 154.153125 
L 841.2225 154.153125 
Q 845.6225 154.153125 845.6225 149.753125 
L 845.6225 22.6 
Q 845.6225 18.2 841.2225 18.2 
L 407.8225 18.2 
Q 403.4225 18.2 403.4225 22.6 
L 403.4225 149.753125 
Q 403.4225 154.153125 407.8225 154.153125 
z
" style="fill: #ffffff; opacity: 0.8; stroke: #cccccc; stroke-linejoin: miter"/>
    </g>
    <g id="patch_124">
     <path d="M 412.2225 43.716563 
L 456.2225 43.716563 
L 456.2225 28.316563 
L 412.2225 28.316563 
z
" style="fill: #0000ff"/>
    </g>
    <g id="text_39">
     <!-- $\Delta_H \leq 0.33 mm/year$ -->
     <g transform="translate(473.8225 43.716563) scale(0.22 -0.22)">
      <defs>
       <path id="DejaVuSans-394" d="M 2188 4044 
L 906 525 
L 3472 525 
L 2188 4044 
z
M 50 0 
L 1831 4666 
L 2547 4666 
L 4325 0 
L 50 0 
z
" transform="scale(0.015625)"/>
       <path id="DejaVuSans-Oblique-48" d="M 1081 4666 
L 1716 4666 
L 1344 2753 
L 3634 2753 
L 4006 4666 
L 4641 4666 
L 3731 0 
L 3097 0 
L 3531 2222 
L 1241 2222 
L 806 0 
L 172 0 
L 1081 4666 
z
" transform="scale(0.015625)"/>
       <path id="DejaVuSans-2264" d="M 4684 3175 
L 1684 2309 
L 4684 1453 
L 4684 897 
L 678 2047 
L 678 2578 
L 4684 3725 
L 4684 3175 
z
M 678 531 
L 4684 531 
L 4684 0 
L 678 0 
L 678 531 
z
" transform="scale(0.015625)"/>
       <path id="DejaVuSans-2e" d="M 684 794 
L 1344 794 
L 1344 0 
L 684 0 
L 684 794 
z
" transform="scale(0.015625)"/>
       <path id="DejaVuSans-Oblique-6d" d="M 5747 2113 
L 5338 0 
L 4763 0 
L 5166 2094 
Q 5191 2228 5203 2325 
Q 5216 2422 5216 2491 
Q 5216 2772 5059 2928 
Q 4903 3084 4622 3084 
Q 4203 3084 3875 2770 
Q 3547 2456 3450 1953 
L 3066 0 
L 2491 0 
L 2900 2094 
Q 2925 2209 2937 2307 
Q 2950 2406 2950 2484 
Q 2950 2769 2794 2926 
Q 2638 3084 2363 3084 
Q 1938 3084 1609 2770 
Q 1281 2456 1184 1953 
L 800 0 
L 225 0 
L 909 3500 
L 1484 3500 
L 1375 2956 
Q 1609 3263 1923 3423 
Q 2238 3584 2597 3584 
Q 2978 3584 3223 3384 
Q 3469 3184 3519 2828 
Q 3781 3197 4126 3390 
Q 4472 3584 4856 3584 
Q 5306 3584 5551 3325 
Q 5797 3066 5797 2591 
Q 5797 2488 5784 2364 
Q 5772 2241 5747 2113 
z
" transform="scale(0.015625)"/>
       <path id="DejaVuSans-2f" d="M 1625 4666 
L 2156 4666 
L 531 -594 
L 0 -594 
L 1625 4666 
z
" transform="scale(0.015625)"/>
       <path id="DejaVuSans-Oblique-79" d="M 1588 -325 
Q 1188 -997 936 -1164 
Q 684 -1331 294 -1331 
L -159 -1331 
L -63 -850 
L 269 -850 
Q 509 -850 678 -719 
Q 847 -588 1056 -206 
L 1234 128 
L 459 3500 
L 1069 3500 
L 1650 819 
L 3256 3500 
L 3859 3500 
L 1588 -325 
z
" transform="scale(0.015625)"/>
       <path id="DejaVuSans-Oblique-65" d="M 3078 2063 
Q 3088 2113 3092 2166 
Q 3097 2219 3097 2272 
Q 3097 2653 2873 2875 
Q 2650 3097 2266 3097 
Q 1838 3097 1509 2826 
Q 1181 2556 1013 2059 
L 3078 2063 
z
M 3578 1613 
L 903 1613 
Q 884 1494 878 1425 
Q 872 1356 872 1306 
Q 872 872 1139 634 
Q 1406 397 1894 397 
Q 2269 397 2603 481 
Q 2938 566 3225 728 
L 3116 159 
Q 2806 34 2476 -28 
Q 2147 -91 1806 -91 
Q 1078 -91 686 257 
Q 294 606 294 1247 
Q 294 1794 489 2264 
Q 684 2734 1063 3103 
Q 1306 3334 1642 3459 
Q 1978 3584 2356 3584 
Q 2950 3584 3301 3228 
Q 3653 2872 3653 2272 
Q 3653 2128 3634 1964 
Q 3616 1800 3578 1613 
z
" transform="scale(0.015625)"/>
       <path id="DejaVuSans-Oblique-61" d="M 3438 1997 
L 3047 0 
L 2472 0 
L 2578 531 
Q 2325 219 2001 64 
Q 1678 -91 1281 -91 
Q 834 -91 548 182 
Q 263 456 263 884 
Q 263 1497 752 1853 
Q 1241 2209 2100 2209 
L 2900 2209 
L 2931 2363 
Q 2938 2388 2941 2417 
Q 2944 2447 2944 2509 
Q 2944 2788 2717 2942 
Q 2491 3097 2081 3097 
Q 1800 3097 1504 3025 
Q 1209 2953 897 2809 
L 997 3341 
Q 1322 3463 1633 3523 
Q 1944 3584 2234 3584 
Q 2853 3584 3176 3315 
Q 3500 3047 3500 2534 
Q 3500 2431 3484 2292 
Q 3469 2153 3438 1997 
z
M 2816 1759 
L 2241 1759 
Q 1534 1759 1195 1570 
Q 856 1381 856 984 
Q 856 709 1029 553 
Q 1203 397 1509 397 
Q 1978 397 2328 733 
Q 2678 1069 2791 1631 
L 2816 1759 
z
" transform="scale(0.015625)"/>
       <path id="DejaVuSans-Oblique-72" d="M 2853 2969 
Q 2766 3016 2653 3041 
Q 2541 3066 2413 3066 
Q 1953 3066 1609 2717 
Q 1266 2369 1153 1784 
L 800 0 
L 225 0 
L 909 3500 
L 1484 3500 
L 1375 2956 
Q 1603 3259 1920 3421 
Q 2238 3584 2597 3584 
Q 2691 3584 2781 3573 
Q 2872 3563 2963 3538 
L 2853 2969 
z
" transform="scale(0.015625)"/>
      </defs>
      <use xlink:href="#DejaVuSans-394" transform="translate(0 0.78125)"/>
      <use xlink:href="#DejaVuSans-Oblique-48" transform="translate(69.365234 -15.625) scale(0.7)"/>
      <use xlink:href="#DejaVuSans-2264" transform="translate(144.21875 0.78125)"/>
      <use xlink:href="#DejaVuSans-30" transform="translate(247.490234 0.78125)"/>
      <use xlink:href="#DejaVuSans-2e" transform="translate(311.113281 0.78125)"/>
      <use xlink:href="#DejaVuSans-33" transform="translate(342.900391 0.78125)"/>
      <use xlink:href="#DejaVuSans-33" transform="translate(406.523438 0.78125)"/>
      <use xlink:href="#DejaVuSans-Oblique-6d" transform="translate(468.396484 0.78125)"/>
      <use xlink:href="#DejaVuSans-Oblique-6d" transform="translate(565.808594 0.78125)"/>
      <use xlink:href="#DejaVuSans-2f" transform="translate(663.220703 0.78125)"/>
      <use xlink:href="#DejaVuSans-Oblique-79" transform="translate(696.912109 0.78125)"/>
      <use xlink:href="#DejaVuSans-Oblique-65" transform="translate(756.091797 0.78125)"/>
      <use xlink:href="#DejaVuSans-Oblique-61" transform="translate(817.615234 0.78125)"/>
      <use xlink:href="#DejaVuSans-Oblique-72" transform="translate(878.894531 0.78125)"/>
     </g>
    </g>
    <g id="patch_125">
     <path d="M 412.2225 76.056562 
L 456.2225 76.056562 
L 456.2225 60.656562 
L 412.2225 60.656562 
z
" style="fill: #ff0000"/>
    </g>
    <g id="text_40">
     <!-- $\Delta_H$ between 0.33 - 0.66 mm/year -->
     <g transform="translate(473.8225 76.056562) scale(0.22 -0.22)">
      <defs>
       <path id="DejaVuSans-62" d="M 3116 1747 
Q 3116 2381 2855 2742 
Q 2594 3103 2138 3103 
Q 1681 3103 1420 2742 
Q 1159 2381 1159 1747 
Q 1159 1113 1420 752 
Q 1681 391 2138 391 
Q 2594 391 2855 752 
Q 3116 1113 3116 1747 
z
M 1159 2969 
Q 1341 3281 1617 3432 
Q 1894 3584 2278 3584 
Q 2916 3584 3314 3078 
Q 3713 2572 3713 1747 
Q 3713 922 3314 415 
Q 2916 -91 2278 -91 
Q 1894 -91 1617 61 
Q 1341 213 1159 525 
L 1159 0 
L 581 0 
L 581 4863 
L 1159 4863 
L 1159 2969 
z
" transform="scale(0.015625)"/>
       <path id="DejaVuSans-77" d="M 269 3500 
L 844 3500 
L 1563 769 
L 2278 3500 
L 2956 3500 
L 3675 769 
L 4391 3500 
L 4966 3500 
L 4050 0 
L 3372 0 
L 2619 2869 
L 1863 0 
L 1184 0 
L 269 3500 
z
" transform="scale(0.015625)"/>
       <path id="DejaVuSans-2d" d="M 313 2009 
L 1997 2009 
L 1997 1497 
L 313 1497 
L 313 2009 
z
" transform="scale(0.015625)"/>
       <path id="DejaVuSans-79" d="M 2059 -325 
Q 1816 -950 1584 -1140 
Q 1353 -1331 966 -1331 
L 506 -1331 
L 506 -850 
L 844 -850 
Q 1081 -850 1212 -737 
Q 1344 -625 1503 -206 
L 1606 56 
L 191 3500 
L 800 3500 
L 1894 763 
L 2988 3500 
L 3597 3500 
L 2059 -325 
z
" transform="scale(0.015625)"/>
      </defs>
      <use xlink:href="#DejaVuSans-394" transform="translate(0 0.015625)"/>
      <use xlink:href="#DejaVuSans-Oblique-48" transform="translate(69.365234 -16.390625) scale(0.7)"/>
      <use xlink:href="#DejaVuSans-20" transform="translate(124.736328 0.015625)"/>
      <use xlink:href="#DejaVuSans-62" transform="translate(156.523438 0.015625)"/>
      <use xlink:href="#DejaVuSans-65" transform="translate(220 0.015625)"/>
      <use xlink:href="#DejaVuSans-74" transform="translate(281.523438 0.015625)"/>
      <use xlink:href="#DejaVuSans-77" transform="translate(320.732422 0.015625)"/>
      <use xlink:href="#DejaVuSans-65" transform="translate(402.519531 0.015625)"/>
      <use xlink:href="#DejaVuSans-65" transform="translate(464.042969 0.015625)"/>
      <use xlink:href="#DejaVuSans-6e" transform="translate(525.566406 0.015625)"/>
      <use xlink:href="#DejaVuSans-20" transform="translate(588.945312 0.015625)"/>
      <use xlink:href="#DejaVuSans-30" transform="translate(620.732422 0.015625)"/>
      <use xlink:href="#DejaVuSans-2e" transform="translate(684.355469 0.015625)"/>
      <use xlink:href="#DejaVuSans-33" transform="translate(716.142578 0.015625)"/>
      <use xlink:href="#DejaVuSans-33" transform="translate(779.765625 0.015625)"/>
      <use xlink:href="#DejaVuSans-20" transform="translate(843.388672 0.015625)"/>
      <use xlink:href="#DejaVuSans-2d" transform="translate(875.175781 0.015625)"/>
      <use xlink:href="#DejaVuSans-20" transform="translate(911.259766 0.015625)"/>
      <use xlink:href="#DejaVuSans-30" transform="translate(943.046875 0.015625)"/>
      <use xlink:href="#DejaVuSans-2e" transform="translate(1006.669922 0.015625)"/>
      <use xlink:href="#DejaVuSans-36" transform="translate(1038.457031 0.015625)"/>
      <use xlink:href="#DejaVuSans-36" transform="translate(1102.080078 0.015625)"/>
      <use xlink:href="#DejaVuSans-20" transform="translate(1165.703125 0.015625)"/>
      <use xlink:href="#DejaVuSans-6d" transform="translate(1197.490234 0.015625)"/>
      <use xlink:href="#DejaVuSans-6d" transform="translate(1294.902344 0.015625)"/>
      <use xlink:href="#DejaVuSans-2f" transform="translate(1392.314453 0.015625)"/>
      <use xlink:href="#DejaVuSans-79" transform="translate(1426.005859 0.015625)"/>
      <use xlink:href="#DejaVuSans-65" transform="translate(1485.185547 0.015625)"/>
      <use xlink:href="#DejaVuSans-61" transform="translate(1546.708984 0.015625)"/>
      <use xlink:href="#DejaVuSans-72" transform="translate(1607.988281 0.015625)"/>
     </g>
    </g>
    <g id="patch_126">
     <path d="M 412.2225 108.396563 
L 456.2225 108.396563 
L 456.2225 92.996563 
L 412.2225 92.996563 
z
" style="fill: #008000"/>
    </g>
    <g id="text_41">
     <!-- $\Delta_H$ between 0.66 - 1 mm/year -->
     <g transform="translate(473.8225 108.396563) scale(0.22 -0.22)">
      <use xlink:href="#DejaVuSans-394" transform="translate(0 0.015625)"/>
      <use xlink:href="#DejaVuSans-Oblique-48" transform="translate(69.365234 -16.390625) scale(0.7)"/>
      <use xlink:href="#DejaVuSans-20" transform="translate(124.736328 0.015625)"/>
      <use xlink:href="#DejaVuSans-62" transform="translate(156.523438 0.015625)"/>
      <use xlink:href="#DejaVuSans-65" transform="translate(220 0.015625)"/>
      <use xlink:href="#DejaVuSans-74" transform="translate(281.523438 0.015625)"/>
      <use xlink:href="#DejaVuSans-77" transform="translate(320.732422 0.015625)"/>
      <use xlink:href="#DejaVuSans-65" transform="translate(402.519531 0.015625)"/>
      <use xlink:href="#DejaVuSans-65" transform="translate(464.042969 0.015625)"/>
      <use xlink:href="#DejaVuSans-6e" transform="translate(525.566406 0.015625)"/>
      <use xlink:href="#DejaVuSans-20" transform="translate(588.945312 0.015625)"/>
      <use xlink:href="#DejaVuSans-30" transform="translate(620.732422 0.015625)"/>
      <use xlink:href="#DejaVuSans-2e" transform="translate(684.355469 0.015625)"/>
      <use xlink:href="#DejaVuSans-36" transform="translate(716.142578 0.015625)"/>
      <use xlink:href="#DejaVuSans-36" transform="translate(779.765625 0.015625)"/>
      <use xlink:href="#DejaVuSans-20" transform="translate(843.388672 0.015625)"/>
      <use xlink:href="#DejaVuSans-2d" transform="translate(875.175781 0.015625)"/>
      <use xlink:href="#DejaVuSans-20" transform="translate(911.259766 0.015625)"/>
      <use xlink:href="#DejaVuSans-31" transform="translate(943.046875 0.015625)"/>
      <use xlink:href="#DejaVuSans-20" transform="translate(1006.669922 0.015625)"/>
      <use xlink:href="#DejaVuSans-6d" transform="translate(1038.457031 0.015625)"/>
      <use xlink:href="#DejaVuSans-6d" transform="translate(1135.869141 0.015625)"/>
      <use xlink:href="#DejaVuSans-2f" transform="translate(1233.28125 0.015625)"/>
      <use xlink:href="#DejaVuSans-79" transform="translate(1266.972656 0.015625)"/>
      <use xlink:href="#DejaVuSans-65" transform="translate(1326.152344 0.015625)"/>
      <use xlink:href="#DejaVuSans-61" transform="translate(1387.675781 0.015625)"/>
      <use xlink:href="#DejaVuSans-72" transform="translate(1448.955078 0.015625)"/>
     </g>
    </g>
    <g id="patch_127">
     <path d="M 412.2225 140.733125 
L 456.2225 140.733125 
L 456.2225 125.333125 
L 412.2225 125.333125 
z
" style="fill: #bf00bf"/>
    </g>
    <g id="text_42">
     <!-- $\Delta_H \geq 1 mm/year $ -->
     <g transform="translate(473.8225 140.733125) scale(0.22 -0.22)">
      <defs>
       <path id="DejaVuSans-2265" d="M 678 3175 
L 678 3725 
L 4684 2578 
L 4684 2047 
L 678 897 
L 678 1453 
L 3681 2309 
L 678 3175 
z
M 4684 531 
L 4684 0 
L 678 0 
L 678 531 
L 4684 531 
z
" transform="scale(0.015625)"/>
      </defs>
      <use xlink:href="#DejaVuSans-394" transform="translate(0 0.09375)"/>
      <use xlink:href="#DejaVuSans-Oblique-48" transform="translate(69.365234 -16.3125) scale(0.7)"/>
      <use xlink:href="#DejaVuSans-2265" transform="translate(144.21875 0.09375)"/>
      <use xlink:href="#DejaVuSans-31" transform="translate(247.490234 0.09375)"/>
      <use xlink:href="#DejaVuSans-Oblique-6d" transform="translate(311.113281 0.09375)"/>
      <use xlink:href="#DejaVuSans-Oblique-6d" transform="translate(408.525391 0.09375)"/>
      <use xlink:href="#DejaVuSans-2f" transform="translate(505.9375 0.09375)"/>
      <use xlink:href="#DejaVuSans-Oblique-79" transform="translate(539.628906 0.09375)"/>
      <use xlink:href="#DejaVuSans-Oblique-65" transform="translate(598.808594 0.09375)"/>
      <use xlink:href="#DejaVuSans-Oblique-61" transform="translate(660.332031 0.09375)"/>
      <use xlink:href="#DejaVuSans-Oblique-72" transform="translate(721.611328 0.09375)"/>
     </g>
    </g>
   </g>
  </g>
 </g>
 <defs>
  <clipPath id="pd55624e7b4">
   <rect x="75.4225" y="7.2" width="781.2" height="332.64"/>
  </clipPath>
 </defs>
</svg>
